<svg xmlns="http://www.w3.org/2000/svg" xmlns:xlink="http://www.w3.org/1999/xlink" width="1750" height="600"><style>@import url("https://fonts.googleapis.com/css?family=Open+Sans:300,400,600");

svg {
  border: none;
}

.node {
  cursor: pointer;
}

.node text {
  font-size: 12px;
  font-family: 'Open Sans', 'Helvetica Neue', Helvetica, sans-serif;
  fill: #333333;
}

.d3-tip {
  font-size: 14px;
  font-family: 'Open Sans', 'Helvetica Neue', Helvetica, sans-serif;
  color: #333333;
  border: 1px solid #CCCCCC;
  border-radius: 5px;
  padding: 10px 20px;
  max-width: 250px;
  word-wrap: break-word;
  background-color: rgba(255, 255, 255, 0.9);
  text-align: left;
}

.link {
  fill: none;
  stroke: #DADFE1;
  stroke-width: 1px;
}
</style><g transform="translate(250,0)"><path class="link" d="M0,310.9090909090909C125,310.9090909090909 125,43.63636363636363 250,43.63636363636363"></path><path class="link" d="M0,310.9090909090909C125,310.9090909090909 125,65.45454545454545 250,65.45454545454545"></path><path class="link" d="M0,310.9090909090909C125,310.9090909090909 125,174.54545454545453 250,174.54545454545453"></path><path class="link" d="M0,310.9090909090909C125,310.9090909090909 125,250.90909090909088 250,250.90909090909088"></path><path class="link" d="M0,310.9090909090909C125,310.9090909090909 125,327.27272727272725 250,327.27272727272725"></path><path class="link" d="M0,310.9090909090909C125,310.9090909090909 125,370.9090909090909 250,370.9090909090909"></path><path class="link" d="M0,310.9090909090909C125,310.9090909090909 125,469.09090909090907 250,469.09090909090907"></path><path class="link" d="M0,310.9090909090909C125,310.9090909090909 125,534.5454545454545 250,534.5454545454545"></path><path class="link" d="M0,310.9090909090909C125,310.9090909090909 125,556.3636363636364 250,556.3636363636364"></path><path class="link" d="M0,310.9090909090909C125,310.9090909090909 125,578.1818181818181 250,578.1818181818181"></path><path class="link" d="M250,65.45454545454545C375,65.45454545454545 375,32.72727272727273 500,32.72727272727273"></path><path class="link" d="M250,65.45454545454545C375,65.45454545454545 375,98.18181818181817 500,98.18181818181817"></path><path class="link" d="M250,174.54545454545453C375,174.54545454545453 375,174.54545454545453 500,174.54545454545453"></path><path class="link" d="M250,250.90909090909088C375,250.90909090909088 375,218.18181818181816 500,218.18181818181816"></path><path class="link" d="M250,250.90909090909088C375,250.90909090909088 375,239.99999999999997 500,239.99999999999997"></path><path class="link" d="M250,250.90909090909088C375,250.90909090909088 375,261.8181818181818 500,261.8181818181818"></path><path class="link" d="M250,250.90909090909088C375,250.90909090909088 375,283.6363636363636 500,283.6363636363636"></path><path class="link" d="M250,327.27272727272725C375,327.27272727272725 375,327.27272727272725 500,327.27272727272725"></path><path class="link" d="M250,370.9090909090909C375,370.9090909090909 375,370.9090909090909 500,370.9090909090909"></path><path class="link" d="M500,370.9090909090909C625,370.9090909090909 625,360 750,360"></path><path class="link" d="M500,370.9090909090909C625,370.9090909090909 625,381.8181818181818 750,381.8181818181818"></path><path class="link" d="M250,469.09090909090907C375,469.09090909090907 375,469.09090909090907 500,469.09090909090907"></path><path class="link" d="M500,469.09090909090907C625,469.09090909090907 625,425.45454545454544 750,425.45454545454544"></path><path class="link" d="M500,469.09090909090907C625,469.09090909090907 625,490.9090909090909 750,490.9090909090909"></path><path class="link" d="M500,469.09090909090907C625,469.09090909090907 625,512.7272727272726 750,512.7272727272726"></path><path class="link" d="M750,490.9090909090909C875,490.9090909090909 875,469.09090909090907 1000,469.09090909090907"></path><path class="link" d="M750,490.9090909090909C875,490.9090909090909 875,490.9090909090909 1000,490.9090909090909"></path><path class="link" d="M750,490.9090909090909C875,490.9090909090909 875,512.7272727272726 1000,512.7272727272726"></path><path class="link" d="M750,425.45454545454544C875,425.45454545454544 875,425.45454545454544 1000,425.45454545454544"></path><path class="link" d="M1000,425.45454545454544C1125,425.45454545454544 1125,414.5454545454545 1250,414.5454545454545"></path><path class="link" d="M1000,425.45454545454544C1125,425.45454545454544 1125,436.3636363636363 1250,436.3636363636363"></path><path class="link" d="M250,534.5454545454545C375,534.5454545454545 375,512.7272727272726 500,512.7272727272726"></path><path class="link" d="M250,534.5454545454545C375,534.5454545454545 375,534.5454545454545 500,534.5454545454545"></path><path class="link" d="M250,534.5454545454545C375,534.5454545454545 375,556.3636363636364 500,556.3636363636364"></path><path class="link" d="M500,32.72727272727273C625,32.72727272727273 625,21.818181818181817 750,21.818181818181817"></path><path class="link" d="M500,32.72727272727273C625,32.72727272727273 625,43.63636363636363 750,43.63636363636363"></path><path class="link" d="M500,98.18181818181817C625,98.18181818181817 625,87.27272727272727 750,87.27272727272727"></path><path class="link" d="M500,98.18181818181817C625,98.18181818181817 625,109.09090909090908 750,109.09090909090908"></path><path class="link" d="M500,174.54545454545453C625,174.54545454545453 625,152.72727272727272 750,152.72727272727272"></path><path class="link" d="M500,174.54545454545453C625,174.54545454545453 625,174.54545454545453 750,174.54545454545453"></path><path class="link" d="M500,174.54545454545453C625,174.54545454545453 625,196.36363636363635 750,196.36363636363635"></path><g class="node" transform="translate(250,578.1818237304688)"><circle r="5" style="stroke-width: 1px; stroke: rgb(78, 205, 196); fill: rgb(255, 255, 255);"></circle><text x="10" dy="4" text-anchor="start" style="fill-opacity: 1;">https://schema.org/name: Dear Diary</text></g><g class="node" transform="translate(250,556.3636474609375)"><circle r="5" style="stroke-width: 1px; stroke: rgb(78, 205, 196); fill: rgb(255, 255, 255);"></circle><text x="10" dy="4" text-anchor="start" style="fill-opacity: 1;">https://schema.org/isFamilyFriendly: true</text></g><g class="node" transform="translate(250,534.5454711914062)"><circle r="6.5" style="stroke-width: 1px; stroke: rgb(78, 205, 196); fill: rgb(255, 255, 255);"></circle><text x="-11.5" dy="4" text-anchor="end" style="fill-opacity: 1;">https://schema.org/genre</text></g><g class="node" transform="translate(250,469.0909118652344)"><circle r="8" style="stroke-width: 1px; stroke: rgb(78, 205, 196); fill: rgb(255, 255, 255);"></circle><text x="-13" dy="4" text-anchor="end" style="fill-opacity: 1;">https://schema.org/director</text></g><g class="node" transform="translate(250,370.9090881347656)"><circle r="6" style="stroke-width: 1px; stroke: rgb(78, 205, 196); fill: rgb(255, 255, 255);"></circle><text x="-11" dy="4" text-anchor="end" style="fill-opacity: 1;">https://schema.org/datePublished</text></g><g class="node" transform="translate(250,327.2727355957031)"><circle r="5.5" style="stroke-width: 1px; stroke: rgb(78, 205, 196); fill: rgb(255, 255, 255);"></circle><text x="-10.5" dy="4" text-anchor="end" style="fill-opacity: 1;">https://schema.org/creator</text></g><g class="node" transform="translate(250,250.90908813476562)"><circle r="7" style="stroke-width: 1px; stroke: rgb(78, 205, 196); fill: rgb(255, 255, 255);"></circle><text x="-12" dy="4" text-anchor="end" style="fill-opacity: 1;">https://schema.org/alternateName</text></g><g class="node" transform="translate(250,174.5454559326172)"><circle r="6.5" style="stroke-width: 1px; stroke: rgb(78, 205, 196); fill: rgb(255, 255, 255);"></circle><text x="-11.5" dy="4" text-anchor="end" style="fill-opacity: 1;">https://schema.org/aggregateRating</text></g><g class="node" transform="translate(250,65.45454406738281)"><circle r="7" style="stroke-width: 1px; stroke: rgb(78, 205, 196); fill: rgb(255, 255, 255);"></circle><text x="-12" dy="4" text-anchor="end" style="fill-opacity: 1;">https://schema.org/actor</text></g><g class="node" transform="translate(250,43.6363639831543)"><circle r="5" style="stroke-width: 1px; stroke: rgb(78, 205, 196); fill: rgb(255, 255, 255);"></circle><text x="10" dy="4" text-anchor="start" style="fill-opacity: 1;">@type: https://schema.org/Movie</text></g><g class="node" transform="translate(0,310.9090881347656)"><circle r="18" style="stroke-width: 2px; stroke: rgb(247, 202, 24); fill: rgb(255, 255, 255);"></circle><text x="-23" dy="4" text-anchor="end" style="fill-opacity: 1;">...ww.imdb.com/title/tt0109382</text></g><g class="node" transform="translate(500,98.18181610107422)"><circle r="6" style="stroke-width: 2px; stroke: rgb(247, 202, 24); fill: rgb(255, 255, 255);"></circle><text x="-11" dy="4" text-anchor="end" style="fill-opacity: 1;">...www.imdb.com/name/nm0051882</text></g><g class="node" transform="translate(500,32.727272033691406)"><circle r="6" style="stroke-width: 2px; stroke: rgb(247, 202, 24); fill: rgb(255, 255, 255);"></circle><text x="-11" dy="4" text-anchor="end" style="fill-opacity: 1;">...www.imdb.com/name/nm0372902</text></g><g class="node" transform="translate(500,174.5454559326172)"><circle r="6.5" style="stroke-width: 2px; stroke: rgb(247, 202, 24); fill: rgb(255, 255, 255);"></circle><text x="-11.5" dy="4" text-anchor="end" style="fill-opacity: 1;">...com/title/tt0109382/reviews</text></g><g class="node" transform="translate(500,283.6363525390625)"><circle r="5" style="stroke-width: 1px; stroke: rgb(78, 205, 196); fill: rgb(255, 255, 255);"></circle><text x="10" dy="4" text-anchor="start" style="fill-opacity: 1;">Querido Diário</text></g><g class="node" transform="translate(500,261.81817626953125)"><circle r="5" style="stroke-width: 1px; stroke: rgb(78, 205, 196); fill: rgb(255, 255, 255);"></circle><text x="10" dy="4" text-anchor="start" style="fill-opacity: 1;">Дорогой дневник</text></g><g class="node" transform="translate(500,240)"><circle r="5" style="stroke-width: 1px; stroke: rgb(78, 205, 196); fill: rgb(255, 255, 255);"></circle><text x="10" dy="4" text-anchor="start" style="fill-opacity: 1;">親愛なる日記</text></g><g class="node" transform="translate(500,218.18182373046875)"><circle r="5" style="stroke-width: 1px; stroke: rgb(78, 205, 196); fill: rgb(255, 255, 255);"></circle><text x="10" dy="4" text-anchor="start" style="fill-opacity: 1;">Αγαπημένο μου ημερολόγιο</text></g><g class="node" transform="translate(500,327.2727355957031)"><circle r="5" style="stroke-width: 2px; stroke: rgb(247, 202, 24); fill: rgb(255, 255, 255);"></circle><text x="10" dy="4" text-anchor="start" style="fill-opacity: 1;">...www.imdb.com/name/nm0604335</text></g><g class="node" transform="translate(500,370.9090881347656)"><circle r="6" style="stroke-width: 2px; stroke: rgb(247, 202, 24); fill: rgb(255, 255, 255);"></circle><text x="-11" dy="4" text-anchor="end" style="fill-opacity: 1;">_8345423</text></g><g class="node" transform="translate(750,381.81817626953125)"><circle r="5" style="stroke-width: 1px; stroke: rgb(78, 205, 196); fill: rgb(255, 255, 255);"></circle><text x="10" dy="4" text-anchor="start" style="fill-opacity: 1;">@type: http://www.w3.org/2001/XMLS...</text></g><g class="node" transform="translate(750,360)"><circle r="5" style="stroke-width: 1px; stroke: rgb(78, 205, 196); fill: rgb(255, 255, 255);"></circle><text x="10" dy="4" text-anchor="start" style="fill-opacity: 1;">@value: 1993</text></g><g class="node" transform="translate(500,469.0909118652344)"><circle r="8" style="stroke-width: 2px; stroke: rgb(247, 202, 24); fill: rgb(255, 255, 255);"></circle><text x="-13" dy="4" text-anchor="end" style="fill-opacity: 1;">...www.imdb.com/name/nm0604335</text></g><g class="node" transform="translate(750,512.727294921875)"><circle r="5" style="stroke-width: 1px; stroke: rgb(78, 205, 196); fill: rgb(255, 255, 255);"></circle><text x="10" dy="4" text-anchor="start" style="fill-opacity: 1;">https://schema.org/name: Nanni Moretti</text></g><g class="node" transform="translate(750,490.9090881347656)"><circle r="6.5" style="stroke-width: 1px; stroke: rgb(78, 205, 196); fill: rgb(255, 255, 255);"></circle><text x="-11.5" dy="4" text-anchor="end" style="fill-opacity: 1;">https://schema.org/jobTitle</text></g><g class="node" transform="translate(750,425.4545593261719)"><circle r="6" style="stroke-width: 1px; stroke: rgb(78, 205, 196); fill: rgb(255, 255, 255);"></circle><text x="-11" dy="4" text-anchor="end" style="fill-opacity: 1;">https://schema.org/birthDate</text></g><g class="node" transform="translate(1000,512.727294921875)"><circle r="5" style="stroke-width: 1px; stroke: rgb(78, 205, 196); fill: rgb(255, 255, 255);"></circle><text x="10" dy="4" text-anchor="start" style="fill-opacity: 1;">producer</text></g><g class="node" transform="translate(1000,490.9090881347656)"><circle r="5" style="stroke-width: 1px; stroke: rgb(78, 205, 196); fill: rgb(255, 255, 255);"></circle><text x="10" dy="4" text-anchor="start" style="fill-opacity: 1;">director</text></g><g class="node" transform="translate(1000,469.0909118652344)"><circle r="5" style="stroke-width: 1px; stroke: rgb(78, 205, 196); fill: rgb(255, 255, 255);"></circle><text x="10" dy="4" text-anchor="start" style="fill-opacity: 1;">writer</text></g><g class="node" transform="translate(1000,425.4545593261719)"><circle r="6" style="stroke-width: 2px; stroke: rgb(247, 202, 24); fill: rgb(255, 255, 255);"></circle><text x="-11" dy="4" text-anchor="end" style="fill-opacity: 1;">_1075223</text></g><g class="node" transform="translate(1250,436.3636474609375)"><circle r="5" style="stroke-width: 1px; stroke: rgb(78, 205, 196); fill: rgb(255, 255, 255);"></circle><text x="10" dy="4" text-anchor="start" style="fill-opacity: 1;">@type: http://www.w3.org/2001/XMLS...</text></g><g class="node" transform="translate(1250,414.5454406738281)"><circle r="5" style="stroke-width: 1px; stroke: rgb(78, 205, 196); fill: rgb(255, 255, 255);"></circle><text x="10" dy="4" text-anchor="start" style="fill-opacity: 1;">@value: 1953</text></g><g class="node" transform="translate(500,556.3636474609375)"><circle r="5" style="stroke-width: 1px; stroke: rgb(78, 205, 196); fill: rgb(255, 255, 255);"></circle><text x="10" dy="4" text-anchor="start" style="fill-opacity: 1;">Drama</text></g><g class="node" transform="translate(500,534.5454711914062)"><circle r="5" style="stroke-width: 1px; stroke: rgb(78, 205, 196); fill: rgb(255, 255, 255);"></circle><text x="10" dy="4" text-anchor="start" style="fill-opacity: 1;">Comedy</text></g><g class="node" transform="translate(500,512.727294921875)"><circle r="5" style="stroke-width: 1px; stroke: rgb(78, 205, 196); fill: rgb(255, 255, 255);"></circle><text x="10" dy="4" text-anchor="start" style="fill-opacity: 1;">Biography</text></g><g class="node" transform="translate(750,43.6363639831543)"><circle r="5" style="stroke-width: 1px; stroke: rgb(78, 205, 196); fill: rgb(255, 255, 255);"></circle><text x="10" dy="4" text-anchor="start" style="fill-opacity: 1;">https://schema.org/name: Jean Hebrail</text></g><g class="node" transform="translate(750,21.81818199157715)"><circle r="5" style="stroke-width: 1px; stroke: rgb(78, 205, 196); fill: rgb(255, 255, 255);"></circle><text x="10" dy="4" text-anchor="start" style="fill-opacity: 1;">@type: https://schema.org/Person</text></g><g class="node" transform="translate(750,109.09091186523438)"><circle r="5" style="stroke-width: 1px; stroke: rgb(78, 205, 196); fill: rgb(255, 255, 255);"></circle><text x="10" dy="4" text-anchor="start" style="fill-opacity: 1;">https://schema.org/name: Nella Banfi</text></g><g class="node" transform="translate(750,87.2727279663086)"><circle r="5" style="stroke-width: 1px; stroke: rgb(78, 205, 196); fill: rgb(255, 255, 255);"></circle><text x="10" dy="4" text-anchor="start" style="fill-opacity: 1;">@type: https://schema.org/Person</text></g><g class="node" transform="translate(750,196.36363220214844)"><circle r="5" style="stroke-width: 1px; stroke: rgb(78, 205, 196); fill: rgb(255, 255, 255);"></circle><text x="10" dy="4" text-anchor="start" style="fill-opacity: 1;">https://schema.org/ratingValue: 7.2</text></g><g class="node" transform="translate(750,174.5454559326172)"><circle r="5" style="stroke-width: 1px; stroke: rgb(78, 205, 196); fill: rgb(255, 255, 255);"></circle><text x="10" dy="4" text-anchor="start" style="fill-opacity: 1;">https://schema.org/ratingCount: 9687</text></g><g class="node" transform="translate(750,152.72727966308594)"><circle r="5" style="stroke-width: 1px; stroke: rgb(78, 205, 196); fill: rgb(255, 255, 255);"></circle><text x="10" dy="4" text-anchor="start" style="fill-opacity: 1;">@type: https://schema.org/Aggregat...</text></g></g></svg>
